<svg width="259" height="73" viewBox="0 0 259 73" fill="none" xmlns="http://www.w3.org/2000/svg">
<path d="M0.0868179 72.9664V67.4768L18.205 41.8856C19.327 40.3228 20.5558 38.7601 21.8981 37.1907C23.2405 35.6213 24.5895 34.0653 25.9452 32.5226L26.6331 35.4944C24.6296 35.6748 22.6261 35.7816 20.6159 35.8083C18.6057 35.835 16.6023 35.8551 14.5988 35.8551H0V28.2618H33.9925V33.7848L16.2016 58.9219C15.0195 60.5648 13.7373 62.1943 12.3482 63.8238C10.9591 65.4533 9.54997 67.0761 8.13417 68.6989L7.4463 65.7271C9.54329 65.5468 11.6403 65.4399 13.7306 65.4132C15.8209 65.3865 17.9045 65.3665 19.9881 65.3665H34.086V72.9597H0.0868179V72.9664Z" fill="#FD8424"/>
<path d="M36.45 72.9663L51.7232 28.2684H63.7241L79.3847 72.9663H69.2137L62.0412 51.3954C61.1797 48.6172 60.3048 45.5719 59.4166 42.2595C58.5284 38.947 57.5934 35.3341 56.6117 31.4139H58.6219C57.6602 35.3541 56.7653 38.9871 55.9372 42.3196C55.1091 45.652 54.281 48.6773 53.4596 51.3954L46.5609 72.9663H36.45ZM45.9932 62.5815V55.409H69.8414V62.5815H45.9932Z" fill="#FD8424"/>
<path d="M87.4523 72.9663L75.4514 28.2684H85.4422L90.6312 50.2601C91.0519 52.1033 91.4393 54.0667 91.7865 56.157C92.1338 58.2473 92.4811 60.3443 92.8217 62.4546C93.1623 64.565 93.4895 66.5885 93.8101 68.5319H92.1872C92.5479 66.5952 92.9085 64.565 93.2691 62.4546C93.6297 60.3443 93.9971 58.2473 94.3777 56.157C94.7584 54.0667 95.1791 52.1033 95.6399 50.2601L101.103 28.2684H110.613L116.042 50.2601C116.503 52.1033 116.924 54.0667 117.304 56.157C117.685 58.2473 118.059 60.3443 118.426 62.4546C118.794 64.565 119.161 66.5885 119.522 68.5319H117.839C118.179 66.5952 118.513 64.565 118.84 62.4546C119.168 60.3443 119.522 58.2473 119.889 56.157C120.256 54.0667 120.643 52.1033 121.044 50.2601L126.233 28.2684H136.251L124.223 72.9663H113.785L107.848 50.1065C107.207 47.5687 106.666 44.8173 106.212 41.8588C105.764 38.9003 105.257 35.8483 104.696 32.7095H106.973C106.352 35.7682 105.851 38.76 105.457 41.6785C105.07 44.5969 104.522 47.4084 103.821 50.1065L97.9105 72.9663H87.439H87.4523Z" fill="#FD8424"/>
<path d="M132.337 72.9663L147.61 28.2684H159.611L175.272 72.9663H165.101L157.928 51.3954C157.067 48.6172 156.192 45.5719 155.304 42.2595C154.415 38.947 153.48 35.3341 152.499 31.4139H154.509C153.547 35.3541 152.652 38.9871 151.824 42.3196C150.996 45.652 150.168 48.6773 149.347 51.3954L142.448 72.9663H132.337ZM141.88 62.5815V55.409H165.728V62.5815H141.88Z" fill="#FD8424"/>
<path d="M187.48 28.2618V72.9597H178.331V28.2618H187.48ZM194.051 72.9664H182.471V65.0793H193.604C196.482 65.0793 198.9 64.5718 200.85 63.55C202.8 62.5282 204.262 60.9521 205.244 58.8084C206.226 56.6713 206.713 53.9265 206.713 50.5874C206.713 47.2482 206.219 44.5435 205.231 42.4132C204.242 40.2828 202.78 38.7067 200.85 37.6849C198.92 36.6631 196.522 36.1556 193.664 36.1556H182.264V28.2685H194.205C198.686 28.2685 202.539 29.1634 205.772 30.9532C209.004 32.743 211.488 35.3008 213.225 38.6332C214.961 41.9657 215.836 45.946 215.836 50.5874C215.836 55.2288 214.968 59.2491 213.225 62.5883C211.482 65.9274 208.991 68.4919 205.738 70.2817C202.486 72.0715 198.593 72.9664 194.051 72.9664Z" fill="#FD8424"/>
<path d="M229.393 28.2618V72.9597H220.244V28.2618H229.393Z" fill="#FD8424"/>
<path d="M244.185 28.2618V72.9597H235.036V28.2618H244.185Z" fill="#FD8424"/>
<path d="M229.674 14.1239C229.674 14.1239 222.194 -3.20633 211.435 0.526841C201.044 4.13312 204.069 24.2014 227.804 23.4134H236.525C260.26 24.2081 263.285 4.1398 252.894 0.526841C242.129 -3.21301 234.562 14.2708 234.562 14.2708C232.278 12.9685 229.674 14.1172 229.674 14.1172V14.1239ZM215.869 16.9354C213.278 15.6198 210.727 13.3826 209.986 10.4641C209.705 9.35555 209.752 8.14678 210.26 7.125C211.549 4.55385 215.235 4.51378 217.472 5.72924C219.436 6.79776 220.932 8.6343 222.154 10.4641C223.363 12.274 224.351 14.2307 225.206 16.2275C225.286 16.4078 226.167 18.9923 226.281 18.9923C222.735 19.0725 219.075 18.5582 215.876 16.9354H215.869ZM254.343 10.4641C253.595 13.3826 251.044 15.6198 248.46 16.9354C245.267 18.5582 241.608 19.0725 238.055 18.9923C238.162 18.9923 239.05 16.4078 239.13 16.2275C239.985 14.2307 240.98 12.2806 242.182 10.4641C243.404 8.6343 244.9 6.79776 246.863 5.72924C249.094 4.51378 252.787 4.55385 254.076 7.125C254.584 8.14678 254.63 9.35555 254.35 10.4641H254.343Z" fill="#FD8424"/>
</svg>
